<svg xmlns="http://www.w3.org/2000/svg" xmlns:xlink="http://www.w3.org/1999/xlink" width="1366" zoomAndPan="magnify" viewBox="0 0 1024.5 576" height="768" preserveAspectRatio="xMidYMid meet" version="1.0"><defs><g/><clipPath id="05f929b316"><path d="M 0 0.140625 L 1024 0.140625 L 1024 575.859375 L 0 575.859375 Z M 0 0.140625 " clip-rule="nonzero"/></clipPath><clipPath id="2625e3a49a"><path d="M 674 249 L 740 249 L 740 320 L 674 320 Z M 674 249 " clip-rule="nonzero"/></clipPath><clipPath id="35ba2f0d59"><path d="M 705.371094 237.433594 L 751.808594 275.382812 L 688.722656 352.585938 L 642.285156 314.640625 Z M 705.371094 237.433594 " clip-rule="nonzero"/></clipPath><clipPath id="8a3ed76d43"><path d="M 705.371094 237.433594 L 751.808594 275.382812 L 688.722656 352.585938 L 642.285156 314.640625 Z M 705.371094 237.433594 " clip-rule="nonzero"/></clipPath><clipPath id="dadcc284a9"><path d="M 658 313 L 684 313 L 684 340 L 658 340 Z M 658 313 " clip-rule="nonzero"/></clipPath><clipPath id="77c62f003c"><path d="M 705.371094 237.433594 L 751.808594 275.382812 L 688.722656 352.585938 L 642.285156 314.640625 Z M 705.371094 237.433594 " clip-rule="nonzero"/></clipPath><clipPath id="4e42cd65ca"><path d="M 705.371094 237.433594 L 751.808594 275.382812 L 688.722656 352.585938 L 642.285156 314.640625 Z M 705.371094 237.433594 " clip-rule="nonzero"/></clipPath><clipPath id="e3ff5ca873"><path d="M 702 321 L 764 321 L 764 394 L 702 394 Z M 702 321 " clip-rule="nonzero"/></clipPath><clipPath id="a4d7037f85"><path d="M 741.328125 404.753906 L 690.734375 372.558594 L 744.261719 288.445312 L 794.855469 320.640625 Z M 741.328125 404.753906 " clip-rule="nonzero"/></clipPath><clipPath id="9cc850cd5e"><path d="M 741.328125 404.753906 L 690.734375 372.558594 L 744.261719 288.445312 L 794.855469 320.640625 Z M 741.328125 404.753906 " clip-rule="nonzero"/></clipPath><clipPath id="6df41abc59"><path d="M 752 299 L 778 299 L 778 325 L 752 325 Z M 752 299 " clip-rule="nonzero"/></clipPath><clipPath id="63768036f7"><path d="M 741.328125 404.753906 L 690.734375 372.558594 L 744.261719 288.445312 L 794.855469 320.640625 Z M 741.328125 404.753906 " clip-rule="nonzero"/></clipPath><clipPath id="76759f6aa3"><path d="M 741.328125 404.753906 L 690.734375 372.558594 L 744.261719 288.445312 L 794.855469 320.640625 Z M 741.328125 404.753906 " clip-rule="nonzero"/></clipPath><clipPath id="57aed44085"><path d="M 249 243 L 315 243 L 315 313 L 249 313 Z M 249 243 " clip-rule="nonzero"/></clipPath><clipPath id="7666f6131e"><path d="M 280.421875 231.144531 L 326.863281 269.089844 L 263.777344 346.292969 L 217.335938 308.347656 Z M 280.421875 231.144531 " clip-rule="nonzero"/></clipPath><clipPath id="2203d79179"><path d="M 280.421875 231.144531 L 326.863281 269.089844 L 263.777344 346.292969 L 217.335938 308.347656 Z M 280.421875 231.144531 " clip-rule="nonzero"/></clipPath><clipPath id="99dda083fe"><path d="M 233 307 L 259 307 L 259 334 L 233 334 Z M 233 307 " clip-rule="nonzero"/></clipPath><clipPath id="5a98e650a7"><path d="M 280.421875 231.144531 L 326.863281 269.089844 L 263.777344 346.292969 L 217.335938 308.347656 Z M 280.421875 231.144531 " clip-rule="nonzero"/></clipPath><clipPath id="62a09a915e"><path d="M 280.421875 231.144531 L 326.863281 269.089844 L 263.777344 346.292969 L 217.335938 308.347656 Z M 280.421875 231.144531 " clip-rule="nonzero"/></clipPath><clipPath id="3fcac14958"><path d="M 277 315 L 339 315 L 339 387 L 277 387 Z M 277 315 " clip-rule="nonzero"/></clipPath><clipPath id="76a260cef8"><path d="M 316.378906 398.464844 L 265.785156 366.265625 L 319.3125 282.152344 L 369.90625 314.347656 Z M 316.378906 398.464844 " clip-rule="nonzero"/></clipPath><clipPath id="59f1600a14"><path d="M 316.378906 398.464844 L 265.785156 366.265625 L 319.3125 282.152344 L 369.90625 314.347656 Z M 316.378906 398.464844 " clip-rule="nonzero"/></clipPath><clipPath id="fa2b27fc39"><path d="M 327 293 L 353 293 L 353 319 L 327 319 Z M 327 293 " clip-rule="nonzero"/></clipPath><clipPath id="1cf416e39d"><path d="M 316.378906 398.464844 L 265.785156 366.265625 L 319.3125 282.152344 L 369.90625 314.347656 Z M 316.378906 398.464844 " clip-rule="nonzero"/></clipPath><clipPath id="7b6e83ada4"><path d="M 316.378906 398.464844 L 265.785156 366.265625 L 319.3125 282.152344 L 369.90625 314.347656 Z M 316.378906 398.464844 " clip-rule="nonzero"/></clipPath></defs><g clip-path="url(#05f929b316)"><path fill="#ffffff" d="M 0 0.140625 L 1024 0.140625 L 1024 575.859375 L 0 575.859375 Z M 0 0.140625 " fill-opacity="1" fill-rule="nonzero"/><path fill="#ffffff" d="M 0 0.140625 L 1024 0.140625 L 1024 575.859375 L 0 575.859375 Z M 0 0.140625 " fill-opacity="1" fill-rule="nonzero"/></g><g fill="#ffa500" fill-opacity="1"><g transform="translate(230.870675, 229.307552)"><g><path d="M 6.453125 0 C 5.648438 0 5 -0.273438 4.5 -0.828125 C 4 -1.378906 3.75 -2.148438 3.75 -3.140625 C 3.75 -3.847656 3.898438 -4.648438 4.203125 -5.546875 L 40.484375 -107.796875 C 40.984375 -109.097656 41.53125 -109.992188 42.125 -110.484375 C 42.726562 -110.984375 43.679688 -111.234375 44.984375 -111.234375 L 74.515625 -111.234375 C 75.710938 -111.234375 76.785156 -110.859375 77.734375 -110.109375 C 78.679688 -109.367188 79.40625 -108.394531 79.90625 -107.1875 L 115.890625 -5.09375 C 116.085938 -4.289062 116.1875 -3.691406 116.1875 -3.296875 C 116.1875 -2.398438 115.984375 -1.625 115.578125 -0.96875 C 115.179688 -0.320312 114.585938 0 113.796875 0 L 84.40625 0 C 82.707031 0 81.609375 -0.847656 81.109375 -2.546875 L 75.265625 -19.796875 C 74.960938 -20.492188 74.6875 -20.96875 74.4375 -21.21875 C 74.1875 -21.46875 73.710938 -21.59375 73.015625 -21.59375 L 41.234375 -21.59375 C 40.023438 -21.59375 39.273438 -21.039062 38.984375 -19.9375 L 32.828125 -2.25 C 32.234375 -0.75 31.035156 0 29.234375 0 Z M 65.515625 -47.078125 C 66.617188 -47.078125 67.171875 -47.578125 67.171875 -48.578125 C 67.171875 -48.773438 67.066406 -49.273438 66.859375 -50.078125 L 57.875 -75.703125 C 57.664062 -76.203125 57.363281 -76.453125 56.96875 -76.453125 C 56.570312 -76.453125 56.273438 -76.203125 56.078125 -75.703125 L 46.921875 -50.21875 C 46.722656 -49.820312 46.625 -49.320312 46.625 -48.71875 C 46.625 -47.625 47.222656 -47.078125 48.421875 -47.078125 Z M 65.515625 -47.078125 "/></g></g></g><g fill="#ffa500" fill-opacity="1"><g transform="translate(350.662232, 229.307552)"><g><path d="M 11.25 0 C 10.25 0 9.421875 -0.320312 8.765625 -0.96875 C 8.117188 -1.625 7.796875 -2.398438 7.796875 -3.296875 L 7.796875 -107.34375 C 7.796875 -108.445312 8.144531 -109.367188 8.84375 -110.109375 C 9.539062 -110.859375 10.441406 -111.234375 11.546875 -111.234375 L 56.21875 -111.234375 C 71.8125 -111.234375 83.628906 -108.757812 91.671875 -103.8125 C 99.722656 -98.875 103.75 -91.554688 103.75 -81.859375 C 103.75 -76.554688 102.296875 -72.082031 99.390625 -68.4375 C 96.492188 -64.789062 91.398438 -61.269531 84.109375 -57.875 C 83.910156 -57.769531 83.8125 -57.59375 83.8125 -57.34375 C 83.8125 -57.09375 83.910156 -56.921875 84.109375 -56.828125 C 92.203125 -53.828125 97.945312 -50.273438 101.34375 -46.171875 C 104.738281 -42.078125 106.4375 -36.78125 106.4375 -30.28125 C 106.4375 -19.988281 102.515625 -12.367188 94.671875 -7.421875 C 86.828125 -2.472656 74.8125 0 58.625 0 Z M 58.625 -67.765625 C 62.113281 -67.765625 64.90625 -68.710938 67 -70.609375 C 69.101562 -72.515625 70.15625 -74.960938 70.15625 -77.953125 C 70.15625 -81.148438 68.957031 -83.75 66.5625 -85.75 C 64.164062 -87.75 61.164062 -88.75 57.5625 -88.75 L 45.28125 -88.75 C 43.976562 -88.75 43.078125 -88.523438 42.578125 -88.078125 C 42.078125 -87.628906 41.828125 -86.851562 41.828125 -85.75 L 41.828125 -71.0625 C 41.828125 -69.863281 42.023438 -69.015625 42.421875 -68.515625 C 42.828125 -68.015625 43.476562 -67.765625 44.375 -67.765625 Z M 57.875 -22.484375 C 61.96875 -22.484375 65.1875 -23.632812 67.53125 -25.9375 C 69.882812 -28.238281 71.0625 -30.9375 71.0625 -34.03125 C 71.0625 -37.132812 69.910156 -39.679688 67.609375 -41.671875 C 65.316406 -43.671875 62.320312 -44.671875 58.625 -44.671875 L 45.28125 -44.671875 C 43.976562 -44.671875 43.078125 -44.421875 42.578125 -43.921875 C 42.078125 -43.421875 41.828125 -42.625 41.828125 -41.53125 L 41.828125 -25.78125 C 41.828125 -24.582031 42.023438 -23.734375 42.421875 -23.234375 C 42.828125 -22.734375 43.476562 -22.484375 44.375 -22.484375 Z M 57.875 -22.484375 "/></g></g></g><g fill="#ffa500" fill-opacity="1"><g transform="translate(461.45818, 229.307552)"><g><path d="M 58.625 1.5 C 47.726562 1.5 38.207031 -0.820312 30.0625 -5.46875 C 21.914062 -10.113281 15.640625 -16.707031 11.234375 -25.25 C 6.835938 -33.800781 4.640625 -43.828125 4.640625 -55.328125 C 4.640625 -66.816406 6.863281 -76.882812 11.3125 -85.53125 C 15.757812 -94.175781 22.054688 -100.867188 30.203125 -105.609375 C 38.347656 -110.359375 47.820312 -112.734375 58.625 -112.734375 C 69.3125 -112.734375 78.703125 -110.359375 86.796875 -105.609375 C 94.898438 -100.867188 101.175781 -94.175781 105.625 -85.53125 C 110.070312 -76.882812 112.296875 -66.816406 112.296875 -55.328125 C 112.296875 -43.929688 110.09375 -33.929688 105.6875 -25.328125 C 101.289062 -16.734375 95.046875 -10.113281 86.953125 -5.46875 C 78.859375 -0.820312 69.414062 1.5 58.625 1.5 Z M 58.625 -21.890625 C 63.019531 -21.890625 66.515625 -22.960938 69.109375 -25.109375 C 71.710938 -27.253906 73.613281 -30.726562 74.8125 -35.53125 C 76.007812 -40.332031 76.609375 -46.78125 76.609375 -54.875 C 76.609375 -67.269531 75.207031 -76.164062 72.40625 -81.5625 C 69.613281 -86.957031 65.019531 -89.65625 58.625 -89.65625 C 52.125 -89.65625 47.445312 -86.957031 44.59375 -81.5625 C 41.75 -76.164062 40.328125 -67.269531 40.328125 -54.875 C 40.328125 -46.78125 40.925781 -40.332031 42.125 -35.53125 C 43.320312 -30.726562 45.242188 -27.253906 47.890625 -25.109375 C 50.546875 -22.960938 54.125 -21.890625 58.625 -21.890625 Z M 58.625 -21.890625 "/></g></g></g><g fill="#ffa500" fill-opacity="1"><g transform="translate(578.401125, 229.307552)"><g><path d="M 102.546875 -43.921875 C 102.546875 -27.535156 98.394531 -15.867188 90.09375 -8.921875 C 81.800781 -1.972656 69.960938 1.5 54.578125 1.5 C 37.285156 1.5 24.960938 -2.492188 17.609375 -10.484375 C 10.265625 -18.484375 6.59375 -30.628906 6.59375 -46.921875 L 6.59375 -107.796875 C 6.59375 -108.890625 6.84375 -109.734375 7.34375 -110.328125 C 7.84375 -110.929688 8.539062 -111.234375 9.4375 -111.234375 L 37.9375 -111.234375 C 39.726562 -111.234375 40.625 -110.1875 40.625 -108.09375 L 40.625 -43.328125 C 40.625 -35.929688 42.046875 -30.582031 44.890625 -27.28125 C 47.742188 -23.988281 51.820312 -22.34375 57.125 -22.34375 C 62.320312 -22.34375 66.519531 -23.988281 69.71875 -27.28125 C 72.914062 -30.582031 74.515625 -36.082031 74.515625 -43.78125 L 74.515625 -107.796875 C 74.515625 -110.085938 75.460938 -111.234375 77.359375 -111.234375 L 99.84375 -111.234375 C 101.644531 -111.234375 102.546875 -110.1875 102.546875 -108.09375 Z M 102.546875 -43.921875 "/></g></g></g><g fill="#ffa500" fill-opacity="1"><g transform="translate(687.54788, 229.307552)"><g><path d="M 4.203125 -107.796875 C 4.203125 -108.796875 4.523438 -109.617188 5.171875 -110.265625 C 5.816406 -110.910156 6.742188 -111.234375 7.953125 -111.234375 L 97.59375 -111.234375 C 98.789062 -111.234375 99.710938 -110.910156 100.359375 -110.265625 C 101.015625 -109.617188 101.34375 -108.796875 101.34375 -107.796875 L 101.34375 -89.953125 C 101.34375 -88.054688 100.242188 -87.109375 98.046875 -87.109375 L 71.515625 -87.109375 C 70.316406 -87.109375 69.71875 -86.609375 69.71875 -85.609375 L 69.71875 -3.296875 C 69.71875 -2.203125 69.46875 -1.378906 68.96875 -0.828125 C 68.46875 -0.273438 67.765625 0 66.859375 0 L 38.375 0 C 36.582031 0 35.6875 -1 35.6875 -3 L 35.6875 -85 C 35.6875 -86.40625 35.132812 -87.109375 34.03125 -87.109375 L 7.640625 -87.109375 C 5.347656 -87.109375 4.203125 -88.054688 4.203125 -89.953125 Z M 4.203125 -107.796875 "/></g></g></g><path stroke-linecap="butt" transform="matrix(0.749634, 0, 0, 0.749634, 152.065389, 239.845093)" fill="none" stroke-linejoin="miter" d="M 330.902369 170.998297 C 329.307842 170.998297 328.041599 170.513685 327.09322 169.534041 C 326.186527 168.528342 325.72797 167.142249 325.72797 165.386184 L 325.72797 27.198978 C 325.72797 25.60445 326.056255 24.452847 326.707615 23.733746 C 327.390239 22.98338 328.46368 22.613408 329.927936 22.613408 L 385.934425 22.613408 C 387.659225 22.613408 388.87857 22.837475 389.59767 23.296032 C 390.342826 23.749378 390.994185 24.729023 391.546538 26.224544 L 412.348353 89.797225 C 412.739168 90.870665 413.197725 91.412596 413.718813 91.412596 C 414.140894 91.412596 414.547342 90.870665 414.938158 89.797225 L 433.540983 28.423534 C 434.583158 24.546642 436.370488 22.613408 438.913396 22.613408 L 496.722848 22.613408 C 499.135483 22.613408 500.339195 24.009922 500.339195 26.808162 L 500.339195 165.18817 C 500.339195 167.340262 499.83374 168.851416 498.822831 169.732054 C 497.817132 170.576216 496.186128 170.998297 493.94024 170.998297 L 460.106026 170.998297 C 458.115472 170.998297 456.750222 170.607481 455.999856 169.82585 C 455.285966 169.012953 454.926416 167.74671 454.926416 166.021911 L 454.926416 76.175996 C 454.926416 75.133821 454.665872 74.612734 454.144785 74.612734 C 453.46216 74.612734 452.92544 75.217195 452.534624 76.420907 L 423.728905 167.38716 C 422.780525 169.794584 421.185997 170.998297 418.94011 170.998297 L 397.945493 170.998297 C 395.538068 170.998297 393.922697 169.794584 393.1098 167.38716 L 364.350979 77.98417 C 363.928898 76.650186 363.454708 75.977983 362.933621 75.977983 C 362.250996 75.977983 361.912289 76.712716 361.912289 78.176972 L 361.912289 166.605529 C 361.912289 168.330328 361.651745 169.502775 361.130658 170.122869 C 360.60957 170.706488 359.405858 170.998297 357.51431 170.998297 Z M 521.130588 27.198978 C 521.130588 24.140194 522.396831 22.613408 524.934527 22.613408 L 632.945554 22.613408 C 635.321713 22.613408 636.509792 24.009922 636.509792 26.808162 L 636.311779 50.001769 C 636.311779 53.618116 634.586979 55.42629 631.13738 55.42629 L 571.128938 55.42629 C 568.070154 55.42629 566.538157 56.6769 566.538157 59.183331 L 566.538157 76.175996 C 566.538157 77.50998 566.866442 78.552155 567.517801 79.302521 C 568.200426 80.047677 569.075853 80.42286 570.154504 80.42286 L 606.14081 80.42286 C 608.93905 80.42286 610.335565 81.741211 610.335565 84.377914 L 610.335565 109.181681 C 610.335565 111.464045 609.131853 112.600015 606.724428 112.600015 L 569.71158 112.600015 C 568.799677 112.600015 568.033678 112.876192 567.418795 113.433756 C 566.829966 113.954843 566.538157 114.600992 566.538157 115.382623 L 566.538157 135.402806 C 566.538157 136.476247 566.699694 137.21098 567.027979 137.601796 C 567.351053 137.992612 567.98678 138.185414 568.929949 138.185414 L 633.919987 138.185414 C 636.85371 138.185414 638.317966 139.456868 638.317966 141.994564 L 638.317966 166.605529 C 638.317966 167.939513 637.911518 169.012953 637.09341 169.82585 C 636.311779 170.607481 635.123699 170.998297 633.529172 170.998297 L 526.549899 170.998297 C 524.528079 170.998297 523.115932 170.607481 522.297824 169.82585 C 521.521404 169.012953 521.130588 167.74671 521.130588 166.021911 Z M 521.130588 27.198978 " stroke="#ffa500" stroke-width="7.5" stroke-opacity="1" stroke-miterlimit="4"/><g clip-path="url(#2625e3a49a)"><g clip-path="url(#35ba2f0d59)"><g clip-path="url(#8a3ed76d43)"><path fill="#ffa500" d="M 677.308594 307.4375 L 688.417969 316.515625 C 688.789062 316.050781 689.136719 315.617188 689.457031 315.207031 C 693.976562 309.527344 695.050781 308.550781 706.589844 307.320312 C 714.660156 306.457031 724.699219 305.390625 731.519531 296.367188 C 740.230469 284.84375 738.566406 268.324219 727.734375 258.765625 C 722.023438 253.707031 714.667969 251.265625 707.054688 251.882812 C 699.769531 252.476562 693.183594 255.796875 688.402344 261.265625 L 699.523438 270.355469 C 701.808594 267.929688 704.859375 266.460938 708.21875 266.1875 C 711.964844 265.878906 715.574219 267.097656 718.363281 269.632812 C 722.867188 273.714844 723.980469 280.484375 721.078125 286.105469 C 718.347656 291.382812 713.214844 292.183594 705.070312 293.050781 C 687.472656 294.925781 684.410156 298.691406 677.710938 306.941406 Z M 688.699219 319.257812 L 674.566406 307.710938 L 676.199219 305.710938 C 683.035156 297.296875 686.46875 293.074219 704.863281 291.113281 C 712.808594 290.265625 717.066406 289.621094 719.347656 285.207031 C 721.804688 280.453125 720.84375 274.507812 717.054688 271.082031 C 714.664062 268.925781 711.582031 267.867188 708.375 268.128906 C 705.226562 268.386719 702.390625 269.875 700.390625 272.320312 L 699.773438 273.078125 L 685.644531 261.53125 L 686.261719 260.773438 C 691.429688 254.453125 698.753906 250.605469 706.898438 249.9375 C 715.042969 249.277344 722.914062 251.890625 729.023438 257.304688 C 740.617188 267.535156 742.394531 285.207031 733.074219 297.542969 C 725.746094 307.238281 715.242188 308.355469 706.796875 309.257812 C 695.738281 310.4375 695.109375 311.234375 690.984375 316.421875 C 690.484375 317.054688 689.933594 317.746094 689.3125 318.503906 L 688.699219 319.257812 " fill-opacity="1" fill-rule="nonzero"/></g></g></g><g clip-path="url(#dadcc284a9)"><g clip-path="url(#77c62f003c)"><g clip-path="url(#4e42cd65ca)"><path fill="#ffa500" d="M 660.894531 327.519531 L 672.007812 336.601562 L 681.085938 325.492188 L 669.972656 316.410156 Z M 672.285156 339.34375 L 658.152344 327.796875 L 669.699219 313.664062 L 683.832031 325.214844 L 672.285156 339.34375 " fill-opacity="1" fill-rule="nonzero"/></g></g></g><g clip-path="url(#e3ff5ca873)"><g clip-path="url(#a4d7037f85)"><g clip-path="url(#9cc850cd5e)"><path fill="#ffa500" d="M 760.929688 331.929688 L 748.828125 324.226562 C 748.511719 324.730469 748.21875 325.203125 747.945312 325.644531 C 744.132812 331.820312 743.179688 332.917969 731.863281 335.503906 C 723.953125 337.3125 714.113281 339.558594 708.40625 349.324219 C 701.117188 361.796875 704.71875 378 716.605469 386.214844 C 722.875 390.5625 730.464844 392.117188 737.953125 390.605469 C 745.117188 389.15625 751.261719 385.082031 755.367188 379.089844 L 743.246094 371.375 C 741.265625 374.050781 738.410156 375.871094 735.105469 376.542969 C 731.421875 377.285156 727.695312 376.503906 724.625 374.316406 C 719.671875 370.792969 717.765625 364.203125 719.984375 358.28125 C 722.074219 352.714844 727.074219 351.316406 735.058594 349.492188 C 752.3125 345.550781 754.90625 341.449219 760.585938 332.46875 Z M 748.222656 321.535156 L 763.621094 331.332031 L 762.234375 333.511719 C 756.441406 342.675781 753.527344 347.273438 735.496094 351.394531 C 727.703125 353.171875 723.554688 354.316406 721.808594 358.96875 C 719.929688 363.976562 721.585938 369.765625 725.757812 372.722656 C 728.382812 374.582031 731.570312 375.265625 734.71875 374.628906 C 737.816406 374.003906 740.457031 372.1875 742.15625 369.523438 L 742.679688 368.703125 L 758.074219 378.496094 L 757.550781 379.320312 C 753.164062 386.210938 746.34375 390.894531 738.339844 392.519531 C 730.328125 394.140625 722.199219 392.472656 715.496094 387.820312 C 702.777344 379.027344 698.921875 361.691406 706.722656 348.339844 C 712.851562 337.847656 723.152344 335.496094 731.429688 333.601562 C 742.273438 331.125 742.804688 330.257812 746.285156 324.621094 C 746.710938 323.933594 747.171875 323.183594 747.703125 322.355469 L 748.222656 321.535156 " fill-opacity="1" fill-rule="nonzero"/></g></g></g><g clip-path="url(#6df41abc59)"><g clip-path="url(#63768036f7)"><g clip-path="url(#76759f6aa3)"><path fill="#ffa500" d="M 774.855469 310.046875 L 762.746094 302.34375 L 755.042969 314.449219 L 767.152344 322.152344 Z M 762.148438 299.652344 L 777.546875 309.449219 L 767.75 324.84375 L 752.351562 315.046875 L 762.148438 299.652344 " fill-opacity="1" fill-rule="nonzero"/></g></g></g><g clip-path="url(#57aed44085)"><g clip-path="url(#7666f6131e)"><g clip-path="url(#2203d79179)"><path fill="#ffa500" d="M 252.359375 301.144531 L 263.46875 310.222656 C 263.839844 309.761719 264.1875 309.324219 264.511719 308.917969 C 269.027344 303.234375 270.101562 302.257812 281.644531 301.027344 C 289.710938 300.167969 299.75 299.097656 306.570312 290.078125 C 315.28125 278.550781 313.617188 262.035156 302.785156 252.476562 C 297.074219 247.417969 289.71875 244.972656 282.105469 245.589844 C 274.820312 246.1875 268.234375 249.503906 263.453125 254.972656 L 274.578125 264.0625 C 276.859375 261.636719 279.910156 260.167969 283.269531 259.894531 C 287.015625 259.589844 290.625 260.804688 293.417969 263.34375 C 297.917969 267.425781 299.035156 274.195312 296.128906 279.8125 C 293.398438 285.09375 288.265625 285.890625 280.121094 286.761719 C 262.523438 288.636719 259.464844 292.402344 252.765625 300.648438 Z M 263.75 312.964844 L 249.617188 301.417969 L 251.25 299.421875 C 258.085938 291.003906 261.519531 286.78125 279.914062 284.820312 C 287.863281 283.972656 292.117188 283.328125 294.398438 278.914062 C 296.859375 274.164062 295.894531 268.21875 292.105469 264.789062 C 289.71875 262.632812 286.632812 261.578125 283.429688 261.839844 C 280.277344 262.09375 277.441406 263.585938 275.441406 266.03125 L 274.824219 266.785156 L 260.695312 255.238281 L 261.3125 254.484375 C 266.480469 248.160156 273.808594 244.316406 281.949219 243.648438 C 290.09375 242.984375 297.96875 245.597656 304.074219 251.011719 C 315.667969 261.242188 317.445312 278.914062 308.125 291.25 C 300.796875 300.949219 290.292969 302.066406 281.847656 302.96875 C 270.792969 304.144531 270.160156 304.945312 266.039062 310.128906 C 265.535156 310.761719 264.984375 311.453125 264.363281 312.214844 L 263.75 312.964844 " fill-opacity="1" fill-rule="nonzero"/></g></g></g><g clip-path="url(#99dda083fe)"><g clip-path="url(#5a98e650a7)"><g clip-path="url(#62a09a915e)"><path fill="#ffa500" d="M 235.949219 321.226562 L 247.058594 330.308594 L 256.136719 319.199219 L 245.027344 310.117188 Z M 247.335938 333.054688 L 233.203125 321.503906 L 244.75 307.375 L 258.882812 318.921875 L 247.335938 333.054688 " fill-opacity="1" fill-rule="nonzero"/></g></g></g><g clip-path="url(#3fcac14958)"><g clip-path="url(#76a260cef8)"><g clip-path="url(#59f1600a14)"><path fill="#ffa500" d="M 335.980469 325.636719 L 323.878906 317.933594 C 323.5625 318.4375 323.269531 318.910156 322.996094 319.355469 C 319.183594 325.53125 318.230469 326.628906 306.917969 329.210938 C 299.003906 331.019531 289.164062 333.265625 283.457031 343.03125 C 276.167969 355.503906 279.773438 371.710938 291.65625 379.921875 C 297.925781 384.269531 305.515625 385.828125 313.003906 384.316406 C 320.167969 382.863281 326.3125 378.792969 330.417969 372.796875 L 318.296875 365.082031 C 316.320312 367.761719 313.460938 369.582031 310.15625 370.25 C 306.472656 370.996094 302.75 370.214844 299.675781 368.023438 C 294.722656 364.503906 292.816406 357.910156 295.039062 351.988281 C 297.125 346.425781 302.125 345.027344 310.113281 343.199219 C 327.363281 339.257812 329.960938 335.160156 335.636719 326.179688 Z M 323.273438 315.242188 L 338.671875 325.042969 L 337.289062 327.21875 C 331.492188 336.382812 328.582031 340.980469 310.546875 345.101562 C 302.753906 346.878906 298.605469 348.023438 296.863281 352.675781 C 294.980469 357.6875 296.636719 363.476562 300.808594 366.433594 C 303.433594 368.292969 306.621094 368.976562 309.773438 368.335938 C 312.867188 367.710938 315.511719 365.898438 317.207031 363.234375 L 317.730469 362.410156 L 333.125 372.207031 L 332.601562 373.03125 C 328.214844 379.917969 321.394531 384.601562 313.390625 386.226562 C 305.378906 387.847656 297.253906 386.179688 290.546875 381.527344 C 277.828125 372.738281 273.972656 355.398438 281.773438 342.046875 C 287.90625 331.554688 298.203125 329.203125 306.484375 327.3125 C 317.324219 324.835938 317.855469 323.96875 321.335938 318.332031 C 321.761719 317.644531 322.226562 316.894531 322.753906 316.0625 L 323.273438 315.242188 " fill-opacity="1" fill-rule="nonzero"/></g></g></g><g clip-path="url(#fa2b27fc39)"><g clip-path="url(#1cf416e39d)"><g clip-path="url(#7b6e83ada4)"><path fill="#ffa500" d="M 349.90625 303.757812 L 337.800781 296.050781 L 330.097656 308.15625 L 342.203125 315.859375 Z M 337.199219 293.359375 L 352.597656 303.160156 L 342.800781 318.554688 L 327.402344 308.753906 L 337.199219 293.359375 " fill-opacity="1" fill-rule="nonzero"/></g></g></g></svg>